<?xml version="1.0" standalone="no"?>
<!DOCTYPE svg PUBLIC "-//W3C//DTD SVG 20010904//EN"
 "http://www.w3.org/TR/2001/REC-SVG-20010904/DTD/svg10.dtd">
<svg version="1.0" xmlns="http://www.w3.org/2000/svg"
 width="26.000000pt" height="26.000000pt" viewBox="0 0 26.000000 26.000000"
 preserveAspectRatio="xMidYMid meet">

<g transform="translate(0.000000,26.000000) scale(0.100000,-0.100000)"
fill="#000000" stroke="none">
<path d="M10 242 c0 -5 6 -16 13 -26 12 -16 14 -16 26 -3 10 13 9 17 -8 26
-24 13 -31 14 -31 3z"/>
<path d="M57 202 c-16 -17 -13 -22 58 -92 71 -71 76 -74 92 -57 17 16 14 21
-58 93 -72 72 -76 74 -92 56z"/>
<path d="M216 41 c-14 -15 -14 -20 -3 -30 11 -8 18 -7 31 8 14 15 14 20 3 30
-11 8 -18 7 -31 -8z"/>
</g>
</svg>
